# Blender v2.57 (sub 1) OBJ File: ''
# www.blender.org
o Cylinder.001_Cylinder.002
v -5.000000 3.000000 0.000003
v -5.000000 2.942356 -0.585268
v -5.000001 2.771638 -1.148047
v -5.000001 2.494409 -1.666708
v -5.000001 2.121320 -2.121317
v -5.000001 1.666711 -2.494406
v -5.000002 1.148050 -2.771635
v -5.000002 0.585271 -2.942353
v -5.000002 0.000000 -2.999997
v -5.000002 -0.585271 -2.942353
v -5.000002 -1.148050 -2.771636
v -5.000001 -1.666711 -2.494406
v -5.000001 -2.121320 -2.121317
v -5.000001 -2.494409 -1.666707
v -5.000001 -2.771639 -1.148047
v -5.000000 -2.942356 -0.585267
v -5.000000 -3.000000 0.000004
v -5.000000 -2.942356 0.585275
v -4.999999 -2.771638 1.148055
v -4.999999 -2.494408 1.666715
v -4.999999 -2.121319 2.121325
v -4.999999 -1.666709 2.494413
v -4.999998 -1.148048 2.771643
v -4.999998 -0.585268 2.942359
v -4.999998 0.000003 3.000003
v -4.999998 0.585274 2.942358
v -4.999998 1.148053 2.771640
v -4.999999 1.666714 2.494410
v -4.999999 2.121323 2.121321
v -4.999999 2.494411 1.666710
v -4.999999 2.771640 1.148049
v -5.000000 2.942357 0.585270
v 5.000000 3.000000 -0.000008
v 5.000000 2.942355 -0.585279
v 4.999999 2.771636 -1.148058
v 4.999999 2.494406 -1.666719
v 4.999999 2.121316 -2.121328
v 4.999999 1.666706 -2.494415
v 4.999998 1.148045 -2.771644
v 4.999998 0.585265 -2.942360
v 4.999998 -0.000007 -3.000003
v 4.999998 -0.585276 -2.942358
v 4.999998 -1.148054 -2.771640
v 4.999999 -1.666713 -2.494410
v 4.999999 -2.121322 -2.121322
v 4.999999 -2.494409 -1.666713
v 4.999999 -2.771638 -1.148054
v 5.000000 -2.942356 -0.585276
v 5.000000 -3.000000 -0.000006
v 5.000000 -2.942357 0.585264
v 5.000001 -2.771641 1.148042
v 5.000001 -2.494412 1.666702
v 5.000001 -2.121326 2.121312
v 5.000001 -1.666718 2.494401
v 5.000002 -1.148059 2.771632
v 5.000002 -0.585282 2.942351
v 5.000002 -0.000012 2.999997
v 5.000002 0.585258 2.942355
v 5.000002 1.148037 2.771641
v 5.000001 1.666698 2.494415
v 5.000001 2.121308 2.121329
v 5.000001 2.494399 1.666723
v 5.000001 2.771631 1.148065
v 5.000000 2.942352 0.585288
v -5.000000 4.000000 0.000003
v -5.000000 3.923141 -0.780358
v -5.000001 3.695518 -1.530731
v -5.000001 3.325878 -2.222278
v -5.000002 2.828427 -2.828424
v -5.000002 2.222281 -3.325876
v -5.000002 1.530734 -3.695515
v -5.000002 0.780361 -3.923138
v -5.000002 0.000000 -3.999997
v -5.000002 -0.780361 -3.923138
v -5.000002 -1.530733 -3.695515
v -5.000002 -2.222281 -3.325876
v -5.000002 -2.828427 -2.828424
v -5.000001 -3.325879 -2.222278
v -5.000001 -3.695518 -1.530730
v -5.000000 -3.923141 -0.780357
v -5.000000 -4.000000 0.000005
v -5.000000 -3.923141 0.780366
v -4.999999 -3.695518 1.530739
v -4.999999 -3.325877 2.222286
v -4.999998 -2.828425 2.828432
v -4.999998 -2.222279 3.325883
v -4.999998 -1.530731 3.695523
v -4.999998 -0.780358 3.923145
v -4.999998 0.000004 4.000003
v -4.999998 0.780365 3.923144
v -4.999998 1.530738 3.695520
v -4.999998 2.222285 3.325879
v -4.999998 2.828431 2.828427
v -4.999999 3.325881 2.222280
v -4.999999 3.695520 1.530732
v -5.000000 3.923142 0.780358
v 5.000000 4.000000 -0.000010
v 5.000000 3.923140 -0.780371
v 4.999999 3.695515 -1.530743
v 4.999999 3.325874 -2.222290
v 4.999998 2.828422 -2.828436
v 4.999998 2.222274 -3.325886
v 4.999998 1.530726 -3.695524
v 4.999998 0.780353 -3.923146
v 4.999998 -0.000009 -4.000003
v 4.999998 -0.780369 -3.923143
v 4.999998 -1.530739 -3.695519
v 4.999998 -2.222285 -3.325879
v 4.999998 -2.828429 -2.828428
v 4.999999 -3.325879 -2.222283
v 4.999999 -3.695518 -1.530737
v 5.000000 -3.923141 -0.780367
v 5.000000 -4.000000 -0.000007
v 5.000000 -3.923142 0.780353
v 5.000001 -3.695521 1.530724
v 5.000001 -3.325883 2.222271
v 5.000002 -2.828434 2.828417
v 5.000002 -2.222291 3.325869
v 5.000002 -1.530746 3.695510
v 5.000002 -0.780376 3.923135
v 5.000002 -0.000016 3.999997
v 5.000002 0.780344 3.923142
v 5.000002 1.530716 3.695523
v 5.000002 2.222263 3.325887
v 5.000002 2.828411 2.828440
v 5.000001 3.325865 2.222298
v 5.000001 3.695508 1.530755
v 5.000000 3.923136 0.780385
vt 0.199680 0.799842
vt 0.008706 0.799840
vt 0.007980 0.774793
vt 0.198954 0.774795
vt 0.007255 0.749747
vt 0.198227 0.749748
vt 0.006529 0.724701
vt 0.197500 0.724702
vt 0.005804 0.699655
vt 0.196773 0.699655
vt 0.005079 0.674609
vt 0.196046 0.674609
vt 0.004353 0.649563
vt 0.195319 0.649563
vt 0.003628 0.624518
vt 0.194591 0.624517
vt 0.002902 0.599473
vt 0.193864 0.599472
vt 0.002177 0.574429
vt 0.193136 0.574428
vt 0.001451 0.549385
vt 0.192409 0.549384
vt 0.000726 0.524341
vt 0.191681 0.524340
vt 0.000000 0.499297
vt 0.190954 0.499296
vt 0.000830 0.474281
vt 0.191782 0.474280
vt 0.001659 0.449264
vt 0.192611 0.449264
vt 0.002489 0.424249
vt 0.193439 0.424249
vt 0.003318 0.399233
vt 0.194267 0.399233
vt 0.004147 0.374217
vt 0.195096 0.374218
vt 0.004977 0.349202
vt 0.195925 0.349202
vt 0.005806 0.324186
vt 0.196754 0.324187
vt 0.006635 0.299171
vt 0.197582 0.299171
vt 0.007464 0.274156
vt 0.198411 0.274156
vt 0.008293 0.249140
vt 0.199240 0.249140
vt 0.009122 0.224125
vt 0.200069 0.224125
vt 0.009951 0.199109
vt 0.200898 0.199109
vt 0.193048 1.000000
vt 0.002067 0.999999
vt 0.002897 0.974979
vt 0.193877 0.974980
vt 0.003726 0.949959
vt 0.194706 0.949960
vt 0.004556 0.924938
vt 0.195535 0.924940
vt 0.005386 0.899918
vt 0.196364 0.899920
vt 0.006216 0.874898
vt 0.197193 0.874901
vt 0.007046 0.849879
vt 0.198022 0.849881
vt 0.007876 0.824859
vt 0.198851 0.824861
vt 0.628077 0.000028
vt 0.628054 0.198833
vt 0.601884 0.198855
vt 0.601907 0.000050
vt 0.575714 0.198876
vt 0.575737 0.000072
vt 0.549544 0.198898
vt 0.549567 0.000094
vt 0.523374 0.198919
vt 0.523397 0.000116
vt 0.497204 0.198941
vt 0.497227 0.000138
vt 0.471034 0.198962
vt 0.471057 0.000160
vt 0.444865 0.198983
vt 0.444887 0.000182
vt 0.418695 0.199004
vt 0.418718 0.000204
vt 0.392526 0.199025
vt 0.392549 0.000227
vt 0.366357 0.199047
vt 0.366381 0.000249
vt 0.340188 0.199067
vt 0.340212 0.000271
vt 0.314019 0.199088
vt 0.314044 0.000293
vt 0.287850 0.199109
vt 0.287876 0.000315
vt 0.261681 0.199081
vt 0.261708 0.000287
vt 0.235513 0.199052
vt 0.235541 0.000259
vt 0.209345 0.199023
vt 0.209373 0.000231
vt 0.183176 0.198994
vt 0.183206 0.000203
vt 0.157008 0.198965
vt 0.157038 0.000174
vt 0.130840 0.198936
vt 0.130871 0.000146
vt 0.104672 0.198907
vt 0.104703 0.000117
vt 0.078504 0.198878
vt 0.078536 0.000088
vt 0.052336 0.198849
vt 0.052369 0.000059
vt 0.026168 0.198819
vt 0.026201 0.000029
vt 0.000000 0.198790
vt 0.000034 0.000000
vt 0.837436 0.000250
vt 0.837414 0.199056
vt 0.811244 0.199029
vt 0.811266 0.000223
vt 0.785074 0.199001
vt 0.785096 0.000195
vt 0.758904 0.198973
vt 0.758926 0.000167
vt 0.732734 0.198945
vt 0.732756 0.000140
vt 0.706564 0.198917
vt 0.706586 0.000112
vt 0.680394 0.198889
vt 0.680416 0.000084
vt 0.654224 0.198861
vt 0.654246 0.000056
vn -0.000000 0.995185 -0.098018
vn -0.000000 0.956940 -0.290286
vn -0.000000 0.881921 -0.471397
vn -0.000000 0.773010 -0.634394
vn -0.000000 0.634393 -0.773011
vn -0.000001 0.471396 -0.881922
vn -0.000001 0.290284 -0.956941
vn -0.000001 0.098016 -0.995185
vn -0.000001 -0.098018 -0.995185
vn -0.000001 -0.290285 -0.956940
vn -0.000001 -0.471397 -0.881921
vn -0.000000 -0.634394 -0.773010
vn -0.000000 -0.773010 -0.634393
vn -0.000000 -0.881921 -0.471397
vn -0.000000 -0.956940 -0.290285
vn -0.000000 -0.995185 -0.098017
vn 0.000000 -0.995185 0.098017
vn 0.000000 -0.956940 0.290284
vn 0.000000 -0.881922 0.471396
vn 0.000000 -0.773011 0.634393
vn 0.000000 -0.634394 0.773010
vn 0.000001 -0.471398 0.881921
vn 0.000001 -0.290286 0.956940
vn 0.000001 -0.098019 0.995185
vn 0.000001 0.098016 0.995185
vn 0.000001 0.290283 0.956941
vn 0.000001 0.471395 0.881922
vn 0.000000 0.634391 0.773012
vn 0.000000 0.773009 0.634395
vn 0.000000 0.881920 0.471399
vn 0.000000 0.956940 0.290287
vn 0.000000 0.995185 0.098018
vn -0.000000 0.956940 -0.290285
vn -0.000000 0.881921 -0.471398
vn -0.000001 -0.634394 -0.773010
vn -0.000000 -0.773011 -0.634393
vn 0.000000 -0.995185 0.098016
vn 0.000000 -0.881921 0.471396
vn 0.000001 0.098015 0.995185
vn 0.000000 0.634392 0.773012
usemtl Material.001
s off
f 1/1/1 33/2/1 34/3/1
f 1/1/1 34/3/1 2/4/1
f 2/4/2 34/3/2 35/5/2
f 2/4/2 35/5/2 3/6/2
f 3/6/3 35/5/3 36/7/3
f 3/6/3 36/7/3 4/8/3
f 4/8/4 36/7/4 37/9/4
f 4/8/4 37/9/4 5/10/4
f 5/10/5 37/9/5 38/11/5
f 5/10/5 38/11/5 6/12/5
f 6/12/6 38/11/6 39/13/6
f 6/12/6 39/13/6 7/14/6
f 7/14/7 39/13/7 40/15/7
f 7/14/7 40/15/7 8/16/7
f 8/16/8 40/15/8 41/17/8
f 8/16/8 41/17/8 9/18/8
f 9/18/9 41/17/9 42/19/9
f 9/18/9 42/19/9 10/20/9
f 10/20/10 42/19/10 43/21/10
f 10/20/10 43/21/10 11/22/10
f 11/22/11 43/21/11 44/23/11
f 11/22/11 44/23/11 12/24/11
f 12/24/12 44/23/12 45/25/12
f 12/24/12 45/25/12 13/26/12
f 13/26/13 45/25/13 46/27/13
f 13/26/13 46/27/13 14/28/13
f 14/28/14 46/27/14 47/29/14
f 14/28/14 47/29/14 15/30/14
f 15/30/15 47/29/15 48/31/15
f 15/30/15 48/31/15 16/32/15
f 16/32/16 48/31/16 49/33/16
f 16/32/16 49/33/16 17/34/16
f 17/34/17 49/33/17 50/35/17
f 17/34/17 50/35/17 18/36/17
f 18/36/18 50/35/18 51/37/18
f 18/36/18 51/37/18 19/38/18
f 19/38/19 51/37/19 52/39/19
f 19/38/19 52/39/19 20/40/19
f 20/40/20 52/39/20 53/41/20
f 20/40/20 53/41/20 21/42/20
f 21/42/21 53/41/21 54/43/21
f 21/42/21 54/43/21 22/44/21
f 22/44/22 54/43/22 55/45/22
f 22/44/22 55/45/22 23/46/22
f 23/46/23 55/45/23 56/47/23
f 23/46/23 56/47/23 24/48/23
f 24/48/24 56/47/24 57/49/24
f 24/48/24 57/49/24 25/50/24
f 25/51/25 57/52/25 58/53/25
f 25/51/25 58/53/25 26/54/25
f 26/54/26 58/53/26 59/55/26
f 26/54/26 59/55/26 27/56/26
f 27/56/27 59/55/27 60/57/27
f 27/56/27 60/57/27 28/58/27
f 28/58/28 60/57/28 61/59/28
f 28/58/28 61/59/28 29/60/28
f 29/60/29 61/59/29 62/61/29
f 29/60/29 62/61/29 30/62/29
f 30/62/30 62/61/30 63/63/30
f 30/62/30 63/63/30 31/64/30
f 31/64/31 63/63/31 64/65/31
f 31/64/31 64/65/31 32/66/31
f 33/2/32 1/1/32 32/66/32
f 33/2/32 32/66/32 64/65/32
f 65/67/1 97/68/1 98/69/1
f 65/67/1 98/69/1 66/70/1
f 66/70/33 98/69/33 99/71/33
f 66/70/33 99/71/33 67/72/33
f 67/72/34 99/71/34 100/73/34
f 67/72/34 100/73/34 68/74/34
f 68/74/4 100/73/4 101/75/4
f 68/74/4 101/75/4 69/76/4
f 69/76/5 101/75/5 102/77/5
f 69/76/5 102/77/5 70/78/5
f 70/78/6 102/77/6 103/79/6
f 70/78/6 103/79/6 71/80/6
f 71/80/7 103/79/7 104/81/7
f 71/80/7 104/81/7 72/82/7
f 72/82/8 104/81/8 105/83/8
f 72/82/8 105/83/8 73/84/8
f 73/84/9 105/83/9 106/85/9
f 73/84/9 106/85/9 74/86/9
f 74/86/10 106/85/10 107/87/10
f 74/86/10 107/87/10 75/88/10
f 75/88/11 107/87/11 108/89/11
f 75/88/11 108/89/11 76/90/11
f 76/90/35 108/89/35 109/91/35
f 76/90/35 109/91/35 77/92/35
f 77/92/36 109/91/36 110/93/36
f 77/92/36 110/93/36 78/94/36
f 78/94/14 110/93/14 111/95/14
f 78/94/14 111/95/14 79/96/14
f 79/96/15 111/95/15 112/97/15
f 79/96/15 112/97/15 80/98/15
f 80/98/16 112/97/16 113/99/16
f 80/98/16 113/99/16 81/100/16
f 81/100/37 113/99/37 114/101/37
f 81/100/37 114/101/37 82/102/37
f 82/102/18 114/101/18 115/103/18
f 82/102/18 115/103/18 83/104/18
f 83/104/38 115/103/38 116/105/38
f 83/104/38 116/105/38 84/106/38
f 84/106/20 116/105/20 117/107/20
f 84/106/20 117/107/20 85/108/20
f 85/108/21 117/107/21 118/109/21
f 85/108/21 118/109/21 86/110/21
f 86/110/22 118/109/22 119/111/22
f 86/110/22 119/111/22 87/112/22
f 87/112/23 119/111/23 120/113/23
f 87/112/23 120/113/23 88/114/23
f 88/114/24 120/113/24 121/115/24
f 88/114/24 121/115/24 89/116/24
f 89/117/39 121/118/39 122/119/39
f 89/117/39 122/119/39 90/120/39
f 90/120/26 122/119/26 123/121/26
f 90/120/26 123/121/26 91/122/26
f 91/122/27 123/121/27 124/123/27
f 91/122/27 124/123/27 92/124/27
f 92/124/40 124/123/40 125/125/40
f 92/124/40 125/125/40 93/126/40
f 93/126/29 125/125/29 126/127/29
f 93/126/29 126/127/29 94/128/29
f 94/128/30 126/127/30 127/129/30
f 94/128/30 127/129/30 95/130/30
f 95/130/31 127/129/31 128/131/31
f 95/130/31 128/131/31 96/132/31
f 97/68/32 65/67/32 96/132/32
f 97/68/32 96/132/32 128/131/32
