# Blender v2.57 (sub 1) OBJ File: 'bombe.blend'
# www.blender.org
o Cylinder_Cylinder.001
v 0.048228 0.899459 7.914193
v 0.149885 0.866679 7.976486
v 0.221856 0.805169 8.093373
v 0.249885 0.727113 8.241703
v 0.228422 0.647970 8.392098
v 0.161717 0.583416 8.514771
v 0.062981 0.546237 8.585423
v -0.048228 0.543796 8.590061
v -0.149885 0.576576 8.527768
v -0.221856 0.638086 8.410881
v -0.249885 0.716142 8.262550
v -0.228422 0.795285 8.112156
v -0.161716 0.859839 7.989484
v -0.062981 0.897018 7.918832
v 1.301651 -0.000000 0.297093
v 2.345494 0.000000 1.129530
v 2.924783 0.000000 2.332437
v 2.924783 0.000000 3.667562
v 2.345494 0.000000 4.870469
v 1.301651 -0.000000 5.702907
v 1.172747 -0.564765 5.702907
v 2.113217 -1.017672 4.870469
v 2.635138 -1.269016 3.667562
v 2.635138 -1.269016 2.332437
v 2.113217 -1.017672 1.129530
v 1.172747 -0.564766 0.297093
v 0.811566 -1.017672 0.297093
v 1.462391 -1.833781 1.129530
v 1.823572 -2.286687 2.332437
v 1.823572 -2.286687 3.667562
v 1.462391 -1.833781 4.870469
v 0.811566 -1.017672 5.702907
v 0.289645 -1.269016 5.702907
v 0.521922 -2.286687 4.870469
v 0.650825 -2.851452 3.667562
v 0.650825 -2.851452 2.332437
v 0.521922 -2.286687 1.129530
v 0.289644 -1.269016 0.297093
v -0.000000 -0.000000 0.000000
v -0.289645 -1.269016 0.297093
v -0.521922 -2.286688 1.129530
v -0.650826 -2.851452 2.332437
v -0.650826 -2.851452 3.667562
v -0.521922 -2.286688 4.870469
v -0.289645 -1.269016 5.702907
v -0.811566 -1.017672 5.702907
v -1.462392 -1.833781 4.870469
v -1.823572 -2.286687 3.667562
v -1.823572 -2.286687 2.332437
v -1.462392 -1.833781 1.129530
v -0.811567 -1.017672 0.297093
v -1.172747 -0.564765 0.297093
v -2.113217 -1.017672 1.129530
v -2.635139 -1.269016 2.332437
v -2.635139 -1.269016 3.667562
v -2.113217 -1.017672 4.870469
v -1.172747 -0.564765 5.702907
v -1.301651 0.000000 5.702907
v -2.345494 -0.000000 4.870469
v -2.924783 0.000000 3.667562
v -2.924783 0.000000 2.332437
v -2.345494 -0.000000 1.129530
v -1.301651 0.000000 0.297093
v -1.172747 0.564765 0.297093
v -2.113217 1.017672 1.129530
v -2.635139 1.269016 2.332437
v -2.635139 1.269016 3.667562
v -2.113217 1.017672 4.870469
v -1.172747 0.564765 5.702907
v -0.811566 1.017672 5.702907
v -1.462392 1.833781 4.870469
v -1.823572 2.286688 3.667562
v -1.823572 2.286688 2.332437
v -1.462392 1.833781 1.129530
v -0.811566 1.017672 0.297093
v -0.289645 1.269016 0.297093
v -0.521922 2.286688 1.129530
v -0.650825 2.851453 2.332437
v -0.650825 2.851453 3.667562
v -0.521922 2.286688 4.870469
v -0.289645 1.269016 5.702907
v 0.289645 1.269016 5.702907
v 0.521922 2.286688 4.870469
v 0.650826 2.851453 3.667562
v 0.650826 2.851453 2.332437
v 0.521922 2.286688 1.129530
v 0.289645 1.269016 0.297093
v 0.811566 1.017672 0.297093
v 1.462392 1.833781 1.129530
v 1.823573 2.286688 2.332437
v 1.823573 2.286688 3.667562
v 1.462392 1.833781 4.870469
v 0.811566 1.017672 5.702907
v 1.172747 0.564765 5.702907
v 2.113218 1.017672 4.870469
v 2.635139 1.269016 3.667562
v 2.635139 1.269016 2.332437
v 2.113218 1.017672 1.129530
v 1.172747 0.564765 0.297093
v -0.062981 0.306422 6.675668
v -0.161716 0.269242 6.746320
v -0.228422 0.204688 6.868992
v -0.249885 0.125546 7.019386
v -0.221856 0.047489 7.167717
v -0.149885 -0.014020 7.284604
v -0.048228 -0.046801 7.346898
v 0.062981 -0.044360 7.342258
v 0.161717 -0.007181 7.271606
v 0.228422 0.057373 7.148934
v 0.249885 0.136516 6.998539
v 0.221856 0.214572 6.850209
v 0.149885 0.276082 6.733322
v 0.048228 0.308863 6.671029
v -0.062982 0.262406 5.711384
v -0.161717 0.211120 5.711384
v -0.228422 0.122074 5.711384
v -0.249885 0.012903 5.711384
v -0.221856 -0.094769 5.711384
v -0.149885 -0.179616 5.711384
v -0.048228 -0.224834 5.711384
v 0.062982 -0.221467 5.711384
v 0.161717 -0.170181 5.711384
v 0.228422 -0.081134 5.711384
v 0.249885 0.028037 5.711384
v 0.221856 0.135708 5.711384
v 0.149885 0.220556 5.711384
v 0.048228 0.265774 5.711384
vt 0.835762 0.625259
vt 0.952799 0.732375
vt 0.930049 0.747859
vt 0.816755 0.638461
vt 0.854661 0.615151
vt 0.975907 0.722848
vt 0.875005 0.606901
vt 1.000000 0.717375
vt 0.648877 0.874145
vt 0.805546 0.963052
vt 0.783659 0.973458
vt 0.633444 0.890768
vt 0.666007 0.851059
vt 0.825169 0.949816
vt 0.686727 0.821092
vt 0.843136 0.932484
vt 0.857929 0.911648
vt 0.708146 0.788741
vt 0.729065 0.758406
vt 0.868799 0.889383
vt 0.745331 0.732776
vt 0.875454 0.866643
vt 0.757443 0.710004
vt 0.879412 0.841897
vt 0.768651 0.689938
vt 0.884378 0.816465
vt 0.782149 0.671655
vt 0.894154 0.791871
vt 0.798378 0.654178
vt 0.909906 0.768281
vt 0.714301 0.599193
vt 0.696502 0.621915
vt 0.548060 0.496089
vt 0.578883 0.466352
vt 0.731642 0.576561
vt 0.608672 0.433169
vt 0.752505 0.557210
vt 0.644946 0.398309
vt 0.776995 0.542385
vt 0.697496 0.366032
vt 0.804850 0.532536
vt 0.760712 0.330260
vt 0.835208 0.528862
vt 0.854168 0.305904
vt 0.576494 0.832385
vt 0.564216 0.859959
vt 0.319657 0.892892
vt 0.346926 0.789577
vt 0.593280 0.803491
vt 0.375783 0.717633
vt 0.611803 0.773634
vt 0.404138 0.662500
vt 0.435570 0.622556
vt 0.628782 0.740876
vt 0.679885 0.648044
vt 0.519822 0.525367
vt 0.662942 0.676832
vt 0.492582 0.555401
vt 0.644142 0.707068
vt 0.464957 0.587482
vt 0.423584 0.164349
vt 0.275943 0.307882
vt 0.369060 0.078243
vt 0.556112 0.148724
vt 0.566320 0.000000
vt 0.614908 0.165410
vt 0.683075 0.000000
vt 0.642317 0.178499
vt 0.733599 0.026066
vt 0.691221 0.215971
vt 0.805898 0.116266
vt 0.628932 0.286821
vt 0.594122 0.262058
vt 0.575682 0.252803
vt 0.536523 0.238190
vt 0.442644 0.230635
vt 0.445325 0.282196
vt 0.516709 0.299811
vt 0.546064 0.312927
vt 0.560021 0.320389
vt 0.587605 0.339100
vt 0.554759 0.382589
vt 0.531664 0.366319
vt 0.520266 0.359566
vt 0.496593 0.346902
vt 0.439349 0.323654
vt 0.428001 0.358033
vt 0.475677 0.385412
vt 0.495703 0.398288
vt 0.505451 0.404883
vt 0.525457 0.420426
vt 0.497637 0.453960
vt 0.479742 0.438457
vt 0.471106 0.431742
vt 0.453525 0.418249
vt 0.412733 0.387165
vt 0.394095 0.412178
vt 0.429663 0.447166
vt 0.445643 0.461664
vt 0.453577 0.468714
vt 0.470239 0.484599
vt 0.442155 0.514008
vt 0.425944 0.497115
vt 0.418369 0.489454
vt 0.403362 0.473415
vt 0.372037 0.433756
vt 0.345997 0.452201
vt 0.373505 0.497904
vt 0.388050 0.516274
vt 0.395582 0.524922
vt 0.412085 0.543624
vt 0.378541 0.575009
vt 0.360777 0.553425
vt 0.352922 0.543241
vt 0.338332 0.521281
vt 0.314838 0.467359
vt 0.276603 0.478351
vt 0.294767 0.543949
vt 0.310113 0.571780
vt 0.318842 0.584422
vt 0.339457 0.610614
vt 0.291524 0.655215
vt 0.264960 0.621098
vt 0.254628 0.604005
vt 0.237273 0.565401
vt 0.225963 0.478130
vt 0.164319 0.468876
vt 0.151839 0.587236
vt 0.169421 0.643991
vt 0.183959 0.670050
vt 0.223890 0.721933
vt 0.118632 0.842783
vt 0.024365 0.765921
vt 0.000000 0.712407
vt 0.001177 0.594342
vt 0.086951 0.427505
vn 0.543326 -0.758299 0.360249
vn 0.857029 -0.465417 0.221108
vn 0.987778 -0.140786 0.066884
vn 0.978863 0.184731 -0.087761
vn 0.826623 0.508310 -0.241486
vn 0.484745 0.790034 -0.375326
vn -0.037699 0.902609 -0.428807
vn -0.543326 0.758299 -0.360249
vn -0.857028 0.465418 -0.221109
vn -0.987778 0.140787 -0.066884
vn -0.978863 -0.184729 0.087760
vn -0.826623 -0.508310 0.241486
vn -0.484746 -0.790033 0.375325
vn 0.037699 -0.902609 0.428807
vn -0.006359 -0.005122 0.999967
vn -0.003488 -0.007334 0.999967
vn 0.000040 -0.008105 0.999967
vn 0.003559 -0.007300 0.999967
vn 0.006409 -0.005060 0.999967
vn 0.008034 -0.001793 0.999966
vn 0.008088 0.001888 0.999966
vn 0.006520 0.005252 0.999965
vn 0.003616 0.007603 0.999965
vn -0.000041 0.008436 0.999964
vn -0.008015 -0.001870 0.999966
vn -0.008104 0.001808 0.999965
vn -0.006570 0.005187 0.999965
vn -0.003690 0.007567 0.999965
vn 0.222234 -0.050724 -0.973673
vn 0.617271 -0.140888 -0.774033
vn 0.882503 -0.201425 -0.424991
vn 0.974928 -0.222521 0.000000
vn 0.882503 -0.201425 0.424991
vn 0.617271 -0.140888 0.774033
vn 0.495013 -0.394760 0.774033
vn 0.707712 -0.564382 0.424991
vn 0.781831 -0.623490 0.000000
vn 0.707712 -0.564382 -0.424991
vn 0.495013 -0.394760 -0.774033
vn 0.178218 -0.142124 -0.973673
vn 0.098904 -0.205376 -0.973673
vn 0.274711 -0.570444 -0.774033
vn 0.392751 -0.815555 -0.424991
vn 0.433884 -0.900969 0.000000
vn 0.392751 -0.815555 0.424991
vn 0.274711 -0.570444 0.774033
vn 0.000000 -0.633145 0.774033
vn 0.000000 -0.905198 0.424991
vn -0.000000 -1.000000 0.000000
vn 0.000000 -0.905198 -0.424991
vn 0.000000 -0.633145 -0.774033
vn 0.000000 -0.227950 -0.973673
vn -0.098904 -0.205376 -0.973673
vn -0.274711 -0.570444 -0.774033
vn -0.392751 -0.815555 -0.424991
vn -0.433884 -0.900969 0.000000
vn -0.392751 -0.815555 0.424991
vn -0.274711 -0.570444 0.774033
vn -0.495013 -0.394760 0.774033
vn -0.707712 -0.564382 0.424991
vn -0.781832 -0.623490 0.000000
vn -0.707712 -0.564382 -0.424991
vn -0.495013 -0.394760 -0.774033
vn -0.178218 -0.142124 -0.973673
vn -0.222235 -0.050724 -0.973673
vn -0.617271 -0.140888 -0.774033
vn -0.882503 -0.201426 -0.424990
vn -0.974928 -0.222521 0.000000
vn -0.882503 -0.201426 0.424990
vn -0.617271 -0.140888 0.774033
vn -0.617271 0.140888 0.774033
vn -0.882503 0.201425 0.424991
vn -0.974928 0.222521 0.000000
vn -0.882503 0.201425 -0.424991
vn -0.617271 0.140888 -0.774033
vn -0.222234 0.050724 -0.973673
vn -0.178218 0.142124 -0.973673
vn -0.495013 0.394759 -0.774033
vn -0.707712 0.564382 -0.424991
vn -0.781832 0.623490 0.000000
vn -0.707712 0.564382 0.424991
vn -0.495013 0.394760 0.774033
vn -0.274711 0.570444 0.774033
vn -0.392751 0.815555 0.424991
vn -0.433884 0.900969 0.000000
vn -0.392751 0.815555 -0.424991
vn -0.274711 0.570444 -0.774033
vn -0.098904 0.205375 -0.973673
vn 0.000000 0.227950 -0.973673
vn 0.000000 0.633145 -0.774033
vn 0.000000 0.905198 -0.424991
vn -0.000000 1.000000 0.000000
vn 0.000000 0.905198 0.424991
vn 0.000000 0.633145 0.774033
vn 0.274711 0.570444 0.774033
vn 0.392751 0.815555 0.424991
vn 0.433884 0.900969 0.000000
vn 0.392751 0.815555 -0.424991
vn 0.274711 0.570444 -0.774033
vn 0.098904 0.205375 -0.973673
vn 0.178218 0.142124 -0.973673
vn 0.495013 0.394760 -0.774033
vn 0.707712 0.564382 -0.424991
vn 0.781832 0.623490 0.000000
vn 0.707712 0.564382 0.424991
vn 0.495013 0.394760 0.774033
vn 0.617271 0.140888 0.774033
vn 0.882503 0.201425 0.424991
vn 0.974928 0.222520 0.000000
vn 0.882503 0.201425 -0.424991
vn 0.617271 0.140888 -0.774033
vn 0.222234 0.050724 -0.973673
vn -0.027023 0.998612 -0.045211
vn -0.422139 0.905350 -0.046253
vn -0.770275 0.636402 -0.040850
vn -0.977646 0.209603 -0.016599
vn -0.962381 -0.270554 0.024948
vn -0.738003 -0.671340 0.068219
vn -0.382577 -0.918671 0.098382
vn 0.028206 -0.993746 0.108046
vn 0.435209 -0.895259 0.095417
vn 0.777813 -0.625341 0.062895
vn 0.977972 -0.207883 0.018844
vn 0.961668 0.273402 -0.021113
vn 0.729077 0.683112 -0.042487
vn 0.370100 0.927844 -0.046175
usemtl (null)
s off
f 108/1/1 6/2/1 7/3/1
f 108/1/1 7/3/1 107/4/1
f 109/5/2 5/6/2 6/2/2
f 109/5/2 6/2/2 108/1/2
f 110/7/3 4/8/3 5/6/3
f 110/7/3 5/6/3 109/5/3
f 111/9/4 3/10/4 4/11/4
f 111/9/4 4/11/4 110/12/4
f 112/13/5 2/14/5 3/10/5
f 112/13/5 3/10/5 111/9/5
f 113/15/6 1/16/6 2/14/6
f 113/15/6 2/14/6 112/13/6
f 14/17/7 1/16/7 113/15/7
f 14/17/7 113/15/7 100/18/7
f 101/19/8 13/20/8 14/17/8
f 101/19/8 14/17/8 100/18/8
f 102/21/9 12/22/9 13/20/9
f 102/21/9 13/20/9 101/19/9
f 103/23/10 11/24/10 12/22/10
f 103/23/10 12/22/10 102/21/10
f 104/25/11 10/26/11 11/24/11
f 104/25/11 11/24/11 103/23/11
f 105/27/12 9/28/12 10/26/12
f 105/27/12 10/26/12 104/25/12
f 106/29/13 8/30/13 9/28/13
f 106/29/13 9/28/13 105/27/13
f 107/4/14 7/3/14 8/30/14
f 107/4/14 8/30/14 106/29/14
f 119/31/15 118/32/15 57/33/15
f 119/31/15 57/33/15 46/34/15
f 120/35/16 119/31/16 46/34/16
f 120/35/16 46/34/16 45/36/16
f 121/37/17 120/35/17 45/36/17
f 121/37/17 45/36/17 33/38/17
f 122/39/18 121/37/18 33/38/18
f 122/39/18 33/38/18 32/40/18
f 123/41/19 122/39/19 32/40/19
f 123/41/19 32/40/19 21/42/19
f 124/43/20 123/41/20 21/42/20
f 124/43/20 21/42/20 20/44/20
f 125/45/21 124/46/21 20/47/21
f 125/45/21 20/47/21 94/48/21
f 126/49/22 125/45/22 94/48/22
f 126/49/22 94/48/22 93/50/22
f 127/51/23 126/49/23 93/50/23
f 127/51/23 93/50/23 82/52/23
f 127/51/24 82/52/24 81/53/24
f 127/51/24 81/53/24 114/54/24
f 118/32/25 117/55/25 58/56/25
f 118/32/25 58/56/25 57/33/25
f 117/55/26 116/57/26 69/58/26
f 117/55/26 69/58/26 58/56/26
f 116/57/27 115/59/27 70/60/27
f 116/57/27 70/60/27 69/58/27
f 115/59/28 114/54/28 81/53/28
f 115/59/28 81/53/28 70/60/28
f 26/61/29 39/62/29 15/63/29
f 25/64/30 26/61/30 15/63/30
f 25/64/30 15/63/30 16/65/30
f 24/66/31 25/64/31 16/65/31
f 24/66/31 16/65/31 17/67/31
f 23/68/32 24/66/32 17/67/32
f 23/68/32 17/67/32 18/69/32
f 22/70/33 23/68/33 18/69/33
f 22/70/33 18/69/33 19/71/33
f 21/42/34 22/70/34 19/71/34
f 21/42/34 19/71/34 20/44/34
f 32/40/35 31/72/35 22/70/35
f 32/40/35 22/70/35 21/42/35
f 31/72/36 30/73/36 23/68/36
f 31/72/36 23/68/36 22/70/36
f 30/73/37 29/74/37 24/66/37
f 30/73/37 24/66/37 23/68/37
f 29/74/38 28/75/38 25/64/38
f 29/74/38 25/64/38 24/66/38
f 28/75/39 27/76/39 26/61/39
f 28/75/39 26/61/39 25/64/39
f 27/76/40 39/62/40 26/61/40
f 38/77/41 39/62/41 27/76/41
f 37/78/42 38/77/42 27/76/42
f 37/78/42 27/76/42 28/75/42
f 36/79/43 37/78/43 28/75/43
f 36/79/43 28/75/43 29/74/43
f 35/80/44 36/79/44 29/74/44
f 35/80/44 29/74/44 30/73/44
f 34/81/45 35/80/45 30/73/45
f 34/81/45 30/73/45 31/72/45
f 33/38/46 34/81/46 31/72/46
f 33/38/46 31/72/46 32/40/46
f 45/36/47 44/82/47 34/81/47
f 45/36/47 34/81/47 33/38/47
f 44/82/48 43/83/48 35/80/48
f 44/82/48 35/80/48 34/81/48
f 43/83/49 42/84/49 36/79/49
f 43/83/49 36/79/49 35/80/49
f 42/84/50 41/85/50 37/78/50
f 42/84/50 37/78/50 36/79/50
f 41/85/51 40/86/51 38/77/51
f 41/85/51 38/77/51 37/78/51
f 40/86/52 39/62/52 38/77/52
f 51/87/53 39/62/53 40/86/53
f 50/88/54 51/87/54 40/86/54
f 50/88/54 40/86/54 41/85/54
f 49/89/55 50/88/55 41/85/55
f 49/89/55 41/85/55 42/84/55
f 48/90/56 49/89/56 42/84/56
f 48/90/56 42/84/56 43/83/56
f 47/91/57 48/90/57 43/83/57
f 47/91/57 43/83/57 44/82/57
f 46/34/58 47/91/58 44/82/58
f 46/34/58 44/82/58 45/36/58
f 57/33/59 56/92/59 47/91/59
f 57/33/59 47/91/59 46/34/59
f 56/92/60 55/93/60 48/90/60
f 56/92/60 48/90/60 47/91/60
f 55/93/61 54/94/61 49/89/61
f 55/93/61 49/89/61 48/90/61
f 54/94/62 53/95/62 50/88/62
f 54/94/62 50/88/62 49/89/62
f 53/95/63 52/96/63 51/87/63
f 53/95/63 51/87/63 50/88/63
f 52/96/64 39/62/64 51/87/64
f 63/97/65 39/62/65 52/96/65
f 62/98/66 63/97/66 52/96/66
f 62/98/66 52/96/66 53/95/66
f 61/99/67 62/98/67 53/95/67
f 61/99/67 53/95/67 54/94/67
f 60/100/68 61/99/68 54/94/68
f 60/100/68 54/94/68 55/93/68
f 59/101/69 60/100/69 55/93/69
f 59/101/69 55/93/69 56/92/69
f 58/56/70 59/101/70 56/92/70
f 58/56/70 56/92/70 57/33/70
f 69/58/71 68/102/71 59/101/71
f 69/58/71 59/101/71 58/56/71
f 68/102/72 67/103/72 60/100/72
f 68/102/72 60/100/72 59/101/72
f 67/103/73 66/104/73 61/99/73
f 67/103/73 61/99/73 60/100/73
f 66/104/74 65/105/74 62/98/74
f 66/104/74 62/98/74 61/99/74
f 65/105/75 64/106/75 63/97/75
f 65/105/75 63/97/75 62/98/75
f 64/106/76 39/62/76 63/97/76
f 75/107/77 39/62/77 64/106/77
f 74/108/78 75/107/78 64/106/78
f 74/108/78 64/106/78 65/105/78
f 73/109/79 74/108/79 65/105/79
f 73/109/79 65/105/79 66/104/79
f 72/110/80 73/109/80 66/104/80
f 72/110/80 66/104/80 67/103/80
f 71/111/81 72/110/81 67/103/81
f 71/111/81 67/103/81 68/102/81
f 70/60/82 71/111/82 68/102/82
f 70/60/82 68/102/82 69/58/82
f 81/53/83 80/112/83 71/111/83
f 81/53/83 71/111/83 70/60/83
f 80/112/84 79/113/84 72/110/84
f 80/112/84 72/110/84 71/111/84
f 79/113/85 78/114/85 73/109/85
f 79/113/85 73/109/85 72/110/85
f 78/114/86 77/115/86 74/108/86
f 78/114/86 74/108/86 73/109/86
f 77/115/87 76/116/87 75/107/87
f 77/115/87 75/107/87 74/108/87
f 76/116/88 39/62/88 75/107/88
f 87/117/89 39/62/89 76/116/89
f 86/118/90 87/117/90 76/116/90
f 86/118/90 76/116/90 77/115/90
f 85/119/91 86/118/91 77/115/91
f 85/119/91 77/115/91 78/114/91
f 84/120/92 85/119/92 78/114/92
f 84/120/92 78/114/92 79/113/92
f 83/121/93 84/120/93 79/113/93
f 83/121/93 79/113/93 80/112/93
f 82/52/94 83/121/94 80/112/94
f 82/52/94 80/112/94 81/53/94
f 93/50/95 92/122/95 83/121/95
f 93/50/95 83/121/95 82/52/95
f 92/122/96 91/123/96 84/120/96
f 92/122/96 84/120/96 83/121/96
f 91/123/97 90/124/97 85/119/97
f 91/123/97 85/119/97 84/120/97
f 90/124/98 89/125/98 86/118/98
f 90/124/98 86/118/98 85/119/98
f 89/125/99 88/126/99 87/117/99
f 89/125/99 87/117/99 86/118/99
f 88/126/100 39/62/100 87/117/100
f 99/127/101 39/62/101 88/126/101
f 98/128/102 99/127/102 88/126/102
f 98/128/102 88/126/102 89/125/102
f 97/129/103 98/128/103 89/125/103
f 97/129/103 89/125/103 90/124/103
f 96/130/104 97/129/104 90/124/104
f 96/130/104 90/124/104 91/123/104
f 95/131/105 96/130/105 91/123/105
f 95/131/105 91/123/105 92/122/105
f 94/48/106 95/131/106 92/122/106
f 94/48/106 92/122/106 93/50/106
f 20/47/107 19/132/107 95/131/107
f 20/47/107 95/131/107 94/48/107
f 19/132/108 18/133/108 96/130/108
f 19/132/108 96/130/108 95/131/108
f 18/133/109 17/134/109 97/129/109
f 18/133/109 97/129/109 96/130/109
f 17/134/110 16/135/110 98/128/110
f 17/134/110 98/128/110 97/129/110
f 99/127/111 98/128/111 16/135/111
f 99/127/111 16/135/111 15/136/111
f 39/62/112 99/127/112 15/136/112
f 113/15/113 127/51/113 114/54/113
f 113/15/113 114/54/113 100/18/113
f 115/59/114 101/19/114 100/18/114
f 115/59/114 100/18/114 114/54/114
f 116/57/115 102/21/115 101/19/115
f 116/57/115 101/19/115 115/59/115
f 117/55/116 103/23/116 102/21/116
f 117/55/116 102/21/116 116/57/116
f 118/32/117 104/25/117 103/23/117
f 118/32/117 103/23/117 117/55/117
f 119/31/118 105/27/118 104/25/118
f 119/31/118 104/25/118 118/32/118
f 120/35/119 106/29/119 105/27/119
f 120/35/119 105/27/119 119/31/119
f 121/37/120 107/4/120 106/29/120
f 121/37/120 106/29/120 120/35/120
f 122/39/121 108/1/121 107/4/121
f 122/39/121 107/4/121 121/37/121
f 123/41/122 109/5/122 108/1/122
f 123/41/122 108/1/122 122/39/122
f 124/43/123 110/7/123 109/5/123
f 124/43/123 109/5/123 123/41/123
f 125/45/124 111/9/124 110/12/124
f 125/45/124 110/12/124 124/46/124
f 126/49/125 112/13/125 111/9/125
f 126/49/125 111/9/125 125/45/125
f 127/51/126 113/15/126 112/13/126
f 127/51/126 112/13/126 126/49/126
