# Blender v2.57 (sub 1) OBJ File: ''
# www.blender.org
mtllib bonus.mtl
o Cube_Cube.002
v 2.121320 4.242640 3.249497
v -0.878680 0.000000 0.249498
v -5.121321 0.000000 4.492139
v -2.121319 4.242641 7.492138
v 5.121321 -0.000001 6.249495
v 2.121318 -4.242641 3.249498
v -2.121321 -4.242640 7.492139
v 0.878680 0.000000 10.492138
vt 0.666667 1.000000
vt 0.333333 1.000000
vt 0.333333 0.666667
vt 0.666667 0.666667
vt 0.333333 0.333333
vt 0.000000 0.333333
vt 0.000000 0.000000
vt 0.333333 0.000000
vt 0.666667 0.333333
vt 0.332500 0.665000
vt 0.332500 0.998333
vt -0.000833 0.998333
vt -0.000833 0.665000
vt 0.333334 0.000000
vt 0.666667 0.000000
vt 0.000000 0.666667
vn -0.500000 0.707107 -0.500000
vn 0.500000 -0.707107 0.500000
vn 0.707107 -0.000000 -0.707107
vn -0.500000 -0.707107 -0.500000
vn -0.707107 0.000000 0.707107
vn 0.500000 0.707107 0.500000
usemtl (null)
s off
f 1/1/1 2/2/1 3/3/1
f 1/1/1 3/3/1 4/4/1
f 5/5/2 8/6/2 7/7/2
f 5/5/2 7/7/2 6/8/2
f 1/9/3 5/4/3 6/3/3
f 1/9/3 6/3/3 2/5/3
f 2/10/4 6/11/4 7/12/4
f 2/10/4 7/12/4 3/13/4
f 3/5/5 7/14/5 8/15/5
f 3/5/5 8/15/5 4/9/5
f 5/5/6 1/3/6 4/16/6
f 5/5/6 4/16/6 8/6/6
