# Blender v2.57 (sub 1) OBJ File: 'centerexplosion.blend'
# www.blender.org
mtllib endExplosion.mtl
o Icosphere_Icosphere.002
v 0.000000 0.000000 -8.000000
v 5.788800 -4.205760 -3.577720
v -2.211080 -6.805120 -3.577720
v -7.155400 0.000000 -3.577720
v -2.211080 6.805120 -3.577720
v 5.788800 4.205760 -3.577720
v 2.211080 -6.805120 3.577720
v -5.788800 -4.205760 3.577720
v -5.788800 4.205760 3.577720
v 2.211080 6.805120 3.577720
v 7.155400 0.000000 3.577720
v 0.000000 0.000000 8.000000
v 3.058055 -2.841995 -6.945702
v -3.909917 -6.345368 -7.645278
v 1.199887 -6.701726 -4.146190
v 4.814789 5.022974 -4.772604
v 7.183450 -1.568374 0.128245
v -5.856779 1.847883 -2.116881
v -5.576338 -2.316781 -4.598369
v -2.436948 3.260206 -2.173167
v -6.374331 6.948742 -2.979639
v -1.500754 4.363858 -4.087989
v 8.331375 -1.560451 0.347367
v 4.402219 1.757785 1.389575
v 0.066996 -7.039861 -1.740581
v 3.707953 -6.515359 -0.681465
v -6.362757 -6.180572 0.311655
v -5.799082 1.149995 -2.081000
v -7.826214 1.156506 -0.847641
v -1.117732 5.538637 0.263174
v 2.310141 10.148716 0.683372
v 4.609320 8.574856 -0.070223
v 2.983968 -6.474991 1.235805
v 2.060921 -6.008353 7.042700
v -7.805193 3.442777 2.786814
v -0.983044 9.177354 5.789596
v 4.940999 6.310463 2.338313
v 4.690850 0.518833 3.772341
v 1.669083 -5.558821 8.594658
v -1.135251 -3.279175 3.191149
v -4.943270 -1.603015 7.504886
v -1.683351 2.995879 2.546436
vt 0.243731 0.162627
vt 0.249368 0.089708
vt 0.163218 0.165114
vt 0.868225 0.276148
vt 1.000000 0.258758
vt 0.919599 0.093994
vt 0.924725 0.335849
vt 0.794638 0.160109
vt 0.276136 0.209883
vt 0.405506 0.152124
vt 0.379756 0.178686
vt 0.640481 0.000000
vt 0.786258 0.305225
vt 0.679845 0.300782
vt 0.715520 0.334659
vt 0.618880 0.314430
vt 0.648365 0.234213
vt 0.558597 0.263658
vt 0.598215 0.201739
vt 0.551119 0.204342
vt 0.244346 0.228445
vt 0.282568 0.220335
vt 0.267142 0.261548
vt 0.154612 0.217093
vt 0.102095 0.142459
vt 0.176727 0.203565
vt 0.171424 0.262786
vt 0.718578 0.379137
vt 0.867312 0.442714
vt 0.807116 0.516592
vt 0.525554 0.357051
vt 0.674181 0.379075
vt 0.588374 0.464339
vt 0.406455 0.286061
vt 0.434213 0.324644
vt 0.362504 0.357236
vt 0.187604 0.239681
vt 0.167185 0.297902
vt 0.000000 0.208550
vt 0.015285 0.276909
vt 0.639342 0.457164
vt 0.411388 0.450324
vt 0.353807 0.305308
vt 0.170814 0.314730
vt 0.261028 0.294766
vt 0.193344 0.368265
vt 0.079506 0.339540
vt 0.627377 0.626246
vt 0.772261 0.626246
vt 0.158491 0.475476
vt 0.284410 0.396587
vn -0.433536 0.656470 0.617327
vn -0.394568 0.656362 0.643043
vn -0.010654 0.993110 0.116700
vn -0.180520 0.165434 0.969559
vn 0.796030 0.309741 -0.519997
vn 0.866857 -0.056767 -0.495314
vn 0.620877 -0.311686 -0.719279
vn 0.441092 0.146137 -0.885484
vn 0.798483 0.536643 -0.272835
vn 0.374198 -0.455955 0.807515
vn -0.210725 -0.510807 0.833469
vn 0.612110 -0.337187 0.715280
vn -0.766091 0.030856 0.641990
vn -0.050506 0.161574 0.985567
vn 0.144893 0.356476 0.923001
vn 0.323738 -0.761530 0.561485
vn 0.853794 0.143844 0.500345
vn -0.038647 0.873803 0.484742
vn 0.022675 -0.816495 -0.576907
vn 0.380896 -0.729847 0.567663
vn -0.467906 -0.627319 0.622523
vn -0.162799 -0.465936 0.869713
vn -0.614238 -0.774621 0.150581
vn 0.165286 -0.504128 -0.847665
vn 0.035013 -0.998984 0.028390
vn -0.160232 0.985067 0.063003
vn -0.147016 0.989011 0.015616
vn 0.466392 -0.879349 0.096039
vn -0.346237 -0.565694 0.748405
vn -0.990594 0.032813 -0.132839
vn -0.988104 0.110790 0.106654
vn -0.602835 -0.577244 -0.550798
vn 0.074968 0.953182 0.292958
vn -0.399686 0.403194 0.823216
vn -0.473799 0.811828 -0.341248
vn -0.948352 0.131448 -0.288705
vn 0.067618 0.635628 -0.769029
vn 0.131485 0.577784 -0.805529
vn 0.568515 0.528736 0.630261
vn 0.516057 0.316519 -0.795928
vn -0.585730 0.085850 0.805946
vn -0.720239 0.111285 0.684742
vn -0.244406 0.968066 0.055804
vn -0.477884 0.493936 -0.726398
vn 0.682287 -0.705479 0.191792
vn 0.027287 0.997845 -0.059679
vn 0.403615 0.749806 -0.524296
vn 0.019265 0.990184 -0.138437
vn 0.928210 0.271059 0.254860
vn -0.305152 0.806874 -0.505803
vn 0.111037 -0.841507 0.528712
vn -0.258845 0.864928 -0.429999
vn 0.528760 -0.714768 0.457732
vn 0.731873 -0.577206 0.362208
vn -0.709550 -0.449053 -0.543038
vn 0.755941 -0.526646 -0.388841
vn -0.397804 -0.695149 -0.598765
vn -0.917434 -0.345077 -0.198085
vn -0.920413 -0.355100 -0.163532
vn -0.934669 -0.338806 0.107727
vn 0.848998 -0.484020 0.211960
vn 0.931465 -0.301297 0.203946
vn 0.628734 0.266915 0.730376
vn 0.002339 -0.341454 0.939896
vn -0.101063 0.770263 0.629668
vn -0.677390 -0.734441 0.041707
vn -0.900027 -0.230684 0.369778
vn 0.268693 0.941205 -0.204785
vn -0.468146 0.447141 0.762171
vn -0.662340 -0.676572 -0.321800
vn 0.217495 -0.829554 0.514331
vn 0.058846 0.118017 0.991266
vn 0.237133 -0.472276 0.848954
vn 0.900547 -0.277580 0.334610
vn -0.309210 0.789999 0.529425
vn -0.665151 0.349352 0.659945
vn 0.125273 0.233351 0.964290
vn -0.091275 0.243055 0.965708
vn 0.263943 0.877439 0.400544
vn 0.278855 -0.506057 0.816178
usemtl None_bodyExplose.png
s off
f 15/1/1 2/2/1 13/3/1
f 13/4/2 14/5/2 15/6/2
f 3/5/3 15/4/3 14/7/3
f 13/8/4 1/4/4 14/6/4
f 17/9/5 2/1/5 13/2/5
f 13/2/6 16/10/6 17/9/6
f 6/11/7 17/9/7 16/10/7
f 13/6/8 1/8/8 16/12/8
f 19/7/9 3/4/9 14/13/9
f 14/14/10 18/13/10 19/4/10
f 4/13/11 19/14/11 18/15/11
f 14/8/12 1/14/12 18/4/12
f 21/15/13 4/14/13 18/16/13
f 18/17/14 20/16/14 21/14/14
f 5/16/15 21/17/15 20/18/15
f 18/8/16 1/17/16 20/14/16
f 22/18/17 5/17/17 20/19/17
f 20/12/18 16/19/18 22/17/18
f 6/20/19 22/10/19 16/11/19
f 20/8/20 1/12/20 16/17/20
f 24/21/21 2/1/21 17/9/21
f 17/9/22 23/22/22 24/21/22
f 11/23/23 24/21/23 23/22/23
f 23/22/24 17/9/24 6/11/24
f 26/24/25 3/25/25 15/3/25
f 15/3/26 25/26/26 26/24/26
f 7/27/27 26/24/27 25/26/27
f 25/26/28 15/3/28 2/1/28
f 28/28/29 4/15/29 19/13/29
f 19/13/30 27/29/30 28/28/30
f 8/30/31 28/28/31 27/29/31
f 27/29/32 19/13/32 3/7/32
f 30/31/33 5/18/33 21/16/33
f 21/16/34 29/32/34 30/31/34
f 9/33/35 30/31/35 29/32/35
f 29/32/36 21/16/36 4/15/36
f 32/34/37 6/11/37 22/20/37
f 22/20/38 31/35/38 32/34/38
f 10/36/39 32/34/39 31/35/39
f 31/35/40 22/20/40 5/18/40
f 33/23/41 11/21/41 24/37/41
f 24/26/42 25/37/42 33/21/42
f 7/37/43 33/26/43 25/27/43
f 25/21/44 24/1/44 2/26/44
f 34/27/45 7/24/45 26/38/45
f 26/39/46 27/38/46 34/24/46
f 8/38/47 34/39/47 27/40/47
f 27/24/48 26/25/48 3/39/48
f 35/30/49 8/28/49 28/41/49
f 28/32/50 29/41/50 35/28/50
f 9/41/51 35/32/51 29/33/51
f 29/28/52 28/15/52 4/32/52
f 36/33/53 9/31/53 30/42/53
f 30/35/54 31/42/54 36/31/54
f 10/42/55 36/35/55 31/36/55
f 31/31/56 30/18/56 5/35/56
f 37/36/57 10/34/57 32/43/57
f 32/22/58 23/43/58 37/34/58
f 11/43/59 37/22/59 23/23/59
f 23/34/60 32/11/60 6/22/60
f 39/44/61 7/27/61 33/37/61
f 33/37/62 38/45/62 39/44/62
f 12/46/63 39/44/63 38/45/63
f 38/45/64 33/37/64 11/23/64
f 40/47/65 8/40/65 34/38/65
f 34/38/66 39/44/66 40/47/66
f 12/46/67 40/47/67 39/44/67
f 39/44/68 34/38/68 7/27/68
f 41/48/69 9/33/69 35/41/69
f 35/41/70 40/49/70 41/48/70
f 12/46/71 41/50/71 40/47/71
f 40/49/72 35/41/72 8/30/72
f 42/51/73 10/36/73 36/42/73
f 36/42/74 41/50/74 42/51/74
f 12/46/75 42/51/75 41/50/75
f 41/48/76 36/42/76 9/33/76
f 38/45/77 11/23/77 37/43/77
f 37/43/78 42/51/78 38/45/78
f 12/46/79 38/45/79 42/51/79
f 42/51/80 37/43/80 10/36/80
